<svg width="67" height="40" viewBox="0 0 67 40" fill="none" xmlns="http://www.w3.org/2000/svg">
<path d="M25.001 23.1466C25.201 23.1466 25.3743 23.1666 25.521 23.2066C25.681 23.2466 25.8076 23.3466 25.901 23.5066C25.9943 23.6533 26.041 23.8933 26.041 24.2266C26.041 24.5599 25.9943 24.8066 25.901 24.9666C25.8076 25.1133 25.681 25.2066 25.521 25.2466C25.361 25.2733 25.181 25.2866 24.981 25.2866H21.301V35.9466C21.301 36.1733 21.2743 36.3799 21.221 36.5666C21.181 36.7399 21.0743 36.8799 20.901 36.9866C20.741 37.0933 20.4676 37.1466 20.081 37.1466C19.721 37.1466 19.4543 37.0866 19.281 36.9666C19.1076 36.8599 19.001 36.7199 18.961 36.5466C18.921 36.3599 18.901 36.1533 18.901 35.9266V25.2866H15.181C14.9943 25.2866 14.821 25.2666 14.661 25.2266C14.501 25.1866 14.3676 25.0933 14.261 24.9466C14.1676 24.7999 14.121 24.5599 14.121 24.2266C14.121 23.8933 14.1676 23.6533 14.261 23.5066C14.3543 23.3466 14.481 23.2466 14.641 23.2066C14.8143 23.1666 14.9943 23.1466 15.181 23.1466H25.001Z" fill="white"/>
<path d="M33.4836 37.1066C33.097 37.1066 32.8103 37.0333 32.6236 36.8866C32.437 36.7399 32.3436 36.5399 32.3436 36.2866L32.4836 35.6266C32.377 35.7999 32.197 36.0066 31.9436 36.2466C31.6903 36.4733 31.357 36.6799 30.9436 36.8666C30.5303 37.0399 30.0303 37.1266 29.4436 37.1266C28.817 37.1266 28.2236 36.9999 27.6636 36.7466C27.117 36.4799 26.6303 36.1199 26.2036 35.6666C25.7903 35.1999 25.457 34.6733 25.2036 34.0866C24.9636 33.4866 24.8436 32.8466 24.8436 32.1666C24.8436 31.5133 24.9636 30.8999 25.2036 30.3266C25.457 29.7399 25.797 29.2199 26.2236 28.7666C26.6503 28.3133 27.137 27.9599 27.6836 27.7066C28.2436 27.4399 28.8303 27.3066 29.4436 27.3066C29.9903 27.3066 30.4503 27.3799 30.8236 27.5266C31.2103 27.6733 31.537 27.8599 31.8036 28.0866C32.0703 28.2999 32.2903 28.5266 32.4636 28.7666L32.3436 28.1866C32.3436 27.8933 32.437 27.6733 32.6236 27.5266C32.8103 27.3666 33.1036 27.2866 33.5036 27.2866C33.877 27.2866 34.1436 27.3466 34.3036 27.4666C34.4636 27.5733 34.5636 27.7266 34.6036 27.9266C34.6436 28.1133 34.6636 28.3266 34.6636 28.5666V35.8866C34.6636 36.1133 34.6436 36.3199 34.6036 36.5066C34.5636 36.6933 34.457 36.8399 34.2836 36.9466C34.1236 37.0533 33.857 37.1066 33.4836 37.1066ZM29.8036 34.7866C30.257 34.7866 30.6636 34.6733 31.0236 34.4466C31.3836 34.2199 31.6703 33.9133 31.8836 33.5266C32.1103 33.1266 32.2236 32.6866 32.2236 32.2066C32.2236 31.6866 32.1103 31.2333 31.8836 30.8466C31.657 30.4599 31.357 30.1599 30.9836 29.9466C30.6236 29.7199 30.217 29.6066 29.7636 29.6066C29.2703 29.6066 28.8303 29.7266 28.4436 29.9666C28.057 30.1933 27.7503 30.5066 27.5236 30.9066C27.3103 31.2933 27.2036 31.7333 27.2036 32.2266C27.2036 32.7066 27.317 33.1399 27.5436 33.5266C27.7703 33.9133 28.077 34.2199 28.4636 34.4466C28.8636 34.6733 29.3103 34.7866 29.8036 34.7866Z" fill="white"/>
<path d="M40.0903 37.2666C39.7437 37.2666 39.377 37.2266 38.9903 37.1466C38.6037 37.0799 38.2303 36.9799 37.8703 36.8466C37.5103 36.6999 37.197 36.5333 36.9303 36.3466C36.677 36.1466 36.517 35.9266 36.4503 35.6866C36.397 35.5533 36.377 35.4266 36.3903 35.3066C36.4037 35.1733 36.4437 35.0399 36.5103 34.9066C36.577 34.7599 36.677 34.6133 36.8103 34.4666C36.9303 34.3199 37.0503 34.2399 37.1703 34.2266C37.3037 34.1999 37.4703 34.2399 37.6703 34.3466C37.8437 34.4133 38.0303 34.4999 38.2303 34.6066C38.4437 34.7133 38.657 34.8199 38.8703 34.9266C39.097 35.0333 39.3237 35.1199 39.5503 35.1866C39.7903 35.2533 40.0237 35.2866 40.2503 35.2866C40.7437 35.2866 41.137 35.2066 41.4303 35.0466C41.7237 34.8733 41.8703 34.6333 41.8703 34.3266C41.8703 34.1533 41.8237 33.9999 41.7303 33.8666C41.637 33.7333 41.5103 33.6266 41.3503 33.5466C41.2037 33.4533 41.0237 33.3733 40.8103 33.3066C40.6103 33.2266 40.3903 33.1599 40.1503 33.1066C39.9237 33.0399 39.6837 32.9666 39.4303 32.8866C39.097 32.7933 38.7637 32.6799 38.4303 32.5466C38.097 32.4133 37.797 32.2399 37.5303 32.0266C37.277 31.8133 37.0703 31.5466 36.9103 31.2266C36.7503 30.9066 36.6703 30.5066 36.6703 30.0266C36.6703 29.4266 36.8103 28.9199 37.0903 28.5066C37.3837 28.0799 37.8037 27.7533 38.3503 27.5266C38.897 27.2999 39.557 27.1866 40.3303 27.1866C40.597 27.1866 40.8503 27.2066 41.0903 27.2466C41.3437 27.2866 41.5837 27.3466 41.8103 27.4266C42.0503 27.4933 42.277 27.5799 42.4903 27.6866C42.717 27.7933 42.9303 27.9133 43.1303 28.0466C43.4637 28.2333 43.637 28.4533 43.6503 28.7066C43.6637 28.9466 43.5703 29.2066 43.3703 29.4866C43.2237 29.6733 43.077 29.8066 42.9303 29.8866C42.7837 29.9533 42.6303 29.9533 42.4703 29.8866C42.257 29.7799 42.0237 29.6666 41.7703 29.5466C41.5303 29.4133 41.277 29.2999 41.0103 29.2066C40.757 29.1133 40.4903 29.0666 40.2103 29.0666C39.9437 29.0666 39.7037 29.1066 39.4903 29.1866C39.277 29.2666 39.117 29.3799 39.0103 29.5266C38.9037 29.6733 38.8503 29.8466 38.8503 30.0466C38.8503 30.2333 38.9037 30.3866 39.0103 30.5066C39.117 30.6266 39.257 30.7266 39.4303 30.8066C39.6037 30.8866 39.8103 30.9599 40.0503 31.0266C40.2903 31.0799 40.5437 31.1333 40.8103 31.1866C41.1837 31.2666 41.5637 31.3666 41.9503 31.4866C42.337 31.6066 42.6903 31.7733 43.0103 31.9866C43.3437 32.1999 43.6103 32.4866 43.8103 32.8466C44.0103 33.1933 44.1103 33.6466 44.1103 34.2066C44.1103 35.1799 43.7503 35.9333 43.0303 36.4666C42.3237 36.9999 41.3437 37.2666 40.0903 37.2666Z" fill="white"/>
<path d="M53.69 34.9866C54.0367 35.2799 54.2167 35.5533 54.23 35.8066C54.2567 36.0599 54.1234 36.3533 53.83 36.6866C53.6034 36.9399 53.4034 37.1066 53.23 37.1866C53.0567 37.2666 52.8834 37.2666 52.71 37.1866C52.5367 37.1199 52.33 36.9866 52.09 36.7866L48.27 33.5666V35.9466C48.27 36.1599 48.2434 36.3599 48.19 36.5466C48.15 36.7333 48.0434 36.8799 47.87 36.9866C47.71 37.0933 47.4434 37.1466 47.07 37.1466C46.6967 37.1466 46.4234 37.0866 46.25 36.9666C46.09 36.8599 45.99 36.7133 45.95 36.5266C45.91 36.3399 45.89 36.1399 45.89 35.9266V23.9866C45.89 23.7599 45.91 23.5599 45.95 23.3866C46.0034 23.1999 46.11 23.0533 46.27 22.9466C46.4434 22.8266 46.7167 22.7666 47.09 22.7666C47.4634 22.7666 47.73 22.8266 47.89 22.9466C48.05 23.0533 48.15 23.1999 48.19 23.3866C48.2434 23.5599 48.27 23.7666 48.27 24.0066V30.5666L51.03 27.8866C51.2434 27.6866 51.4434 27.5533 51.63 27.4866C51.8167 27.4066 51.9967 27.3999 52.17 27.4666C52.3567 27.5199 52.55 27.6599 52.75 27.8866C53.0834 28.2466 53.2434 28.5466 53.23 28.7866C53.2167 29.0133 53.05 29.2866 52.73 29.6066L50.03 32.1066L53.69 34.9866Z" fill="white"/>
<path d="M20.0209 36.4474C10.021 40.9474 1.52107 35.4467 2.02099 25.4465C2.02099 20.4469 3.521 15.4464 7.021 12.4464C14.0211 6.44635 20.0209 12.9462 20.0209 11.9471C20.521 -1.05316 46.521 -1.05466 47.021 10.4456C47.021 11.4447 53.0208 4.94558 60.0209 10.9457C63.5209 13.9457 65.021 18.9462 65.021 23.9457C65.5209 33.9459 59.021 40.4463 53.021 35.9463" stroke="white" stroke-width="2.4" stroke-linecap="round"/>
</svg>
